<?xml version="1.0" standalone="no"?>
<!DOCTYPE svg PUBLIC "-//W3C//DTD SVG 20010904//EN"
 "http://www.w3.org/TR/2001/REC-SVG-20010904/DTD/svg10.dtd">
<svg version="1.0" xmlns="http://www.w3.org/2000/svg"
 width="260.000000pt" height="260.000000pt" viewBox="0 0 260.000000 260.000000"
 preserveAspectRatio="xMidYMid meet">
<metadata>
Created by potrace 1.11, written by Peter Selinger 2001-2013
</metadata>
<g transform="translate(0.000000,260.000000) scale(0.100000,-0.100000)"
fill="#000000" stroke="none">
<path d="M295 2591 c-95 -24 -193 -96 -241 -177 -56 -96 -54 -57 -52 -1135 l3
-994 32 -66 c39 -79 111 -150 191 -187 l57 -27 1015 0 1015 0 57 27 c67 31
140 96 174 153 56 96 54 55 51 1135 l-2 995 -32 66 c-39 79 -111 150 -191 187
l-57 27 -995 2 c-547 1 -1008 -2 -1025 -6z"/>
</g>
</svg>
